<?xml version="1.0" encoding="utf-8"?>
<!-- Generator: Adobe Illustrator 23.0.4, SVG Export Plug-In . SVG Version: 6.00 Build 0)  -->
<svg version="1.1" id="Layer_1" xmlns="http://www.w3.org/2000/svg" xmlns:xlink="http://www.w3.org/1999/xlink" x="0px" y="0px"
	 viewBox="0 0 91.5 31" style="enable-background:new 0 0 91.5 31;" xml:space="preserve">
<style type="text/css">
	.st0{fill:#B70D31;}
	.st1{fill:#53535A;}
	.st2{enable-background:new    ;}
</style>
<title>Group 2</title>
<desc>Created with Sketch.</desc>
<g id="Page-1">
	<g id="Group-2" transform="translate(-2.000000, 0.000000)">
		<g id="boss_logo" transform="translate(169.000000, 0.000000)">
			<g id="Group">
				<path id="Shape" class="st0" d="M-98,19.5c-0.5,0-1-0.1-1.5-0.3c-0.5-0.1-0.9-0.4-1.3-0.7c-0.4-0.3-0.7-0.7-0.9-1.2
					c-0.2-0.6-0.3-1.2-0.3-1.8v-3.2c0-0.5-0.1-1.1-0.3-1.6c-0.2-0.3-0.6-0.5-1-0.6c-0.1,0-0.1,0-0.2-0.1c-0.1,0-0.1-0.1-0.1-0.3V8.8
					c0-0.1,0-0.2,0.1-0.3c0.1-0.1,0.1-0.1,0.3-0.1c0.4,0,0.7-0.2,1-0.6c0.2-0.5,0.3-1,0.3-1.6V3.8c0-0.6,0.1-1.2,0.3-1.8
					c0.1-0.5,0.4-0.9,0.8-1.1c0.4-0.3,0.8-0.5,1.3-0.6C-99,0.1-98.5,0-97.9,0c0.1,0,0.3,0.1,0.3,0.2v1.3c0,0.2-0.1,0.3-0.3,0.3
					c-0.5,0-0.9,0.2-1.2,0.5c-0.3,0.3-0.4,0.7-0.4,1.1v2.9c0,0.6-0.1,1.3-0.4,1.8c-0.3,0.4-0.7,0.8-1.1,1v0.1c0.4,0.2,0.8,0.6,1.1,1
					c0.3,0.6,0.5,1.2,0.4,1.9v3.6c0,0.4,0.1,0.8,0.4,1.1c0.3,0.4,0.7,0.6,1.2,0.6c0.2,0,0.3,0.1,0.3,0.3v1.4
					C-97.8,19.4-97.9,19.5-98,19.5L-98,19.5z M-76.4,10.1c-0.1,0-0.1,0.1-0.2,0.1c-0.4,0-0.7,0.2-1,0.6c-0.2,0.5-0.3,1-0.3,1.6v3.2
					c0,0.6-0.1,1.2-0.3,1.8c-0.2,0.5-0.5,0.9-0.9,1.2c-0.4,0.3-0.8,0.5-1.3,0.7c-0.5,0.1-1,0.2-1.5,0.3c-0.1,0-0.1,0-0.1,0
					c0,0-0.1-0.1,0-0.1v-1.4c0-0.1,0.1-0.2,0.3-0.3c0.5,0,0.9-0.2,1.2-0.6c0.3-0.3,0.4-0.7,0.4-1.1v-3.6c-0.1-0.7,0.1-1.3,0.4-1.9
					c0.3-0.4,0.6-0.8,1.1-1V9.3c-0.5-0.2-0.9-0.6-1.1-1c-0.3-0.6-0.5-1.2-0.4-1.8v-3c0-0.4-0.1-0.8-0.4-1.1C-81,2-81.4,1.8-81.9,1.8
					c-0.1,0-0.2-0.1-0.3-0.3V0.3c0-0.1,0.1-0.2,0.3-0.2c0.5,0,1.1,0.1,1.6,0.3c0.5,0.1,0.9,0.3,1.3,0.6c0.4,0.3,0.6,0.7,0.8,1.1
					c0.2,0.6,0.3,1.2,0.3,1.8v2.4c0,0.5,0.1,1.1,0.3,1.6c0.2,0.3,0.6,0.5,1,0.6c0.1,0,0.2,0,0.3,0.1c0.1,0.1,0.1,0.1,0.1,0.3v1.1
					C-76.3,10-76.3,10.1-76.4,10.1L-76.4,10.1z"/>
				<circle id="Oval" class="st1" cx="-89.9" cy="9.7" r="1.5"/>
				<circle class="st1" cx="-95.8" cy="9.7" r="1.5"/>
				<circle class="st1" cx="-84" cy="9.7" r="1.5"/>
			</g>
		</g>
		<g class="st2">
			<path class="st1" d="M2,30V10h7.5c1.5,0,2.8,0.2,3.7,0.6s1.6,1,2.2,1.9s0.8,1.7,0.8,2.6c0,0.9-0.2,1.7-0.7,2.4
				c-0.5,0.8-1.2,1.4-2.1,1.8c1.2,0.4,2.1,1,2.8,1.8c0.7,0.9,1,1.9,1,3c0,0.9-0.2,1.8-0.6,2.6s-0.9,1.4-1.5,1.9s-1.3,0.8-2.2,1
				S11,30,9.7,30H2z M4.7,18.4H9c1.2,0,2-0.1,2.5-0.2c0.7-0.2,1.2-0.5,1.5-1c0.3-0.5,0.5-1,0.5-1.8c0-0.7-0.2-1.3-0.5-1.8
				s-0.8-0.9-1.4-1s-1.6-0.3-3-0.3h-4V18.4z M4.7,27.6h5c0.9,0,1.5,0,1.8-0.1c0.6-0.1,1.1-0.3,1.5-0.5s0.7-0.6,1-1.1
				s0.4-1.1,0.4-1.7c0-0.7-0.2-1.4-0.6-1.9s-0.9-0.9-1.6-1.2s-1.7-0.3-2.9-0.3H4.7V27.6z"/>
			<path class="st1" d="M19.6,22.7c0-2.7,0.7-4.7,2.2-6c1.2-1.1,2.8-1.6,4.6-1.6c2,0,3.6,0.7,4.9,2c1.3,1.3,1.9,3.1,1.9,5.4
				c0,1.9-0.3,3.3-0.8,4.4s-1.4,1.9-2.4,2.5s-2.2,0.9-3.5,0.9c-2,0-3.7-0.7-4.9-2S19.6,25.2,19.6,22.7z M22.1,22.7
				c0,1.9,0.4,3.3,1.2,4.2s1.8,1.4,3.1,1.4c1.2,0,2.2-0.5,3-1.4s1.2-2.3,1.2-4.3c0-1.8-0.4-3.2-1.2-4.1s-1.8-1.4-3-1.4
				c-1.2,0-2.3,0.5-3.1,1.4S22.1,20.9,22.1,22.7z"/>
			<path class="st1" d="M35.1,25.7l2.4-0.4c0.1,1,0.5,1.7,1.1,2.2s1.5,0.8,2.6,0.8c1.1,0,2-0.2,2.5-0.7s0.8-1,0.8-1.6
				c0-0.6-0.2-1-0.7-1.3c-0.3-0.2-1.2-0.5-2.5-0.8c-1.8-0.5-3.1-0.8-3.8-1.2s-1.2-0.8-1.6-1.4s-0.5-1.2-0.5-1.9
				c0-0.6,0.1-1.2,0.4-1.8s0.7-1,1.2-1.4c0.4-0.3,0.9-0.5,1.6-0.7s1.4-0.3,2.1-0.3c1.1,0,2.1,0.2,3,0.5s1.5,0.8,1.9,1.3
				c0.4,0.6,0.7,1.3,0.8,2.2l-2.4,0.3c-0.1-0.7-0.4-1.3-1-1.8S42,17.2,41,17.2c-1.1,0-1.9,0.2-2.4,0.6s-0.7,0.8-0.7,1.3
				c0,0.3,0.1,0.6,0.3,0.9c0.2,0.3,0.5,0.5,0.9,0.7c0.2,0.1,1,0.3,2.2,0.6c1.7,0.5,3,0.8,3.6,1.1s1.2,0.7,1.6,1.3s0.6,1.3,0.6,2.1
				c0,0.8-0.2,1.6-0.7,2.3s-1.2,1.3-2.1,1.7s-1.9,0.6-3.1,0.6c-1.9,0-3.3-0.4-4.3-1.2S35.4,27.2,35.1,25.7z"/>
			<path class="st1" d="M49.1,25.7l2.4-0.4c0.1,1,0.5,1.7,1.1,2.2s1.5,0.8,2.6,0.8c1.1,0,2-0.2,2.5-0.7s0.8-1,0.8-1.6
				c0-0.6-0.2-1-0.7-1.3c-0.3-0.2-1.2-0.5-2.5-0.8c-1.8-0.5-3.1-0.8-3.8-1.2s-1.2-0.8-1.6-1.4s-0.5-1.2-0.5-1.9
				c0-0.6,0.1-1.2,0.4-1.8s0.7-1,1.2-1.4c0.4-0.3,0.9-0.5,1.6-0.7s1.4-0.3,2.1-0.3c1.1,0,2.1,0.2,3,0.5s1.5,0.8,1.9,1.3
				c0.4,0.6,0.7,1.3,0.8,2.2l-2.4,0.3c-0.1-0.7-0.4-1.3-1-1.8S56,17.2,55,17.2c-1.1,0-1.9,0.2-2.4,0.6s-0.7,0.8-0.7,1.3
				c0,0.3,0.1,0.6,0.3,0.9c0.2,0.3,0.5,0.5,0.9,0.7c0.2,0.1,1,0.3,2.2,0.6c1.7,0.5,3,0.8,3.6,1.1s1.2,0.7,1.6,1.3s0.6,1.3,0.6,2.1
				c0,0.8-0.2,1.6-0.7,2.3s-1.2,1.3-2.1,1.7s-1.9,0.6-3.1,0.6c-1.9,0-3.3-0.4-4.3-1.2S49.4,27.2,49.1,25.7z"/>
		</g>
	</g>
</g>
</svg>
