<?xml version="1.0" encoding="UTF-8"?>
<svg width="28px" height="20px" viewBox="0 0 28 20" version="1.1" xmlns="http://www.w3.org/2000/svg" xmlns:xlink="http://www.w3.org/1999/xlink">
    <!-- Generator: Sketch 54.1 (76490) - https://sketchapp.com -->
    <title>boss_logo</title>
    <desc>Created with Sketch.</desc>
    <g id="Page-1" stroke="none" stroke-width="1" fill="none" fill-rule="evenodd">
        <g id="dreamteamsLogo" transform="translate(-68.000000, 0.000000)" fill-rule="nonzero">
            <g id="boss_logo" transform="translate(68.000000, 0.000000)">
                <g id="Group">
                    <path d="M5.54140127,19.4904459 C5.02058939,19.499243 4.50254561,19.4129024 4.01273885,19.2356688 C3.53887682,19.1056597 3.10240728,18.8656014 2.7388535,18.5350318 C2.35799313,18.2005014 2.05382721,17.7877048 1.84713376,17.3248408 C1.63228728,16.7549815 1.52432634,16.1504002 1.52866242,15.5414013 L1.52866242,12.3566879 C1.56366119,11.80718 1.45384684,11.2581082 1.21019108,10.7643312 C0.996598922,10.4367208 0.644359048,10.2253769 0.25477707,10.1910828 C0.188107717,10.1801205 0.12360716,10.1586203 0.0636942675,10.1273885 C5.32907052e-15,10.1273885 5.32907052e-15,10 5.32907052e-15,9.87261146 L5.32907052e-15,8.78980892 C5.32907052e-15,8.66242038 5.32907052e-15,8.59872611 0.0636942675,8.53503185 C0.127388535,8.47133758 0.191082803,8.47133758 0.318471338,8.40764331 C0.708053315,8.37334925 1.06029319,8.16200533 1.27388535,7.8343949 C1.51027816,7.33817516 1.61971169,6.79100753 1.59235669,6.24203822 L1.59235669,3.82165605 C1.5880206,3.21265709 1.69598155,2.60807578 1.91082803,2.03821656 C2.05592008,1.57672839 2.34638455,1.17454682 2.7388535,0.891719745 C3.1218141,0.604673047 3.55332513,0.388917532 4.01273885,0.25477707 C4.53714427,0.133899172 5.06915407,0.0487776047 5.60509554,-7.10542736e-15 C5.73248408,-7.10542736e-15 5.85987261,0.0636942675 5.85987261,0.191082803 L5.85987261,1.46496815 C5.85987261,1.65605096 5.79617834,1.71974522 5.60509554,1.71974522 C5.1433857,1.686062 4.69346475,1.8755024 4.39490446,2.22929936 C4.13748962,2.55508357 4.00227751,2.96071991 4.01273885,3.37579618 L4.01273885,6.30573248 C4.05554554,6.95246897 3.90000022,7.59687098 3.56687898,8.15286624 C3.28318455,8.58937905 2.88714527,8.94141397 2.42038217,9.17197452 L2.42038217,9.23566879 C2.86819586,9.46929119 3.24287565,9.82193099 3.50318471,10.2547771 C3.84405445,10.8310013 3.99969368,11.4980265 3.94904459,12.1656051 L3.94904459,15.7961783 C3.93858324,16.2112546 4.07379535,16.6168909 4.33121019,16.9426752 C4.63784262,17.2930681 5.07603597,17.5006334 5.54140127,17.5159236 C5.73248408,17.5159236 5.79617834,17.5796178 5.79617834,17.7707006 L5.79617834,19.1719745 C5.73248408,19.4267516 5.66878981,19.4904459 5.54140127,19.4904459 L5.54140127,19.4904459 Z M27.133758,10.1273885 C27.0828018,10.1761403 27.0126912,10.1995105 26.9426752,10.1910828 C26.5530932,10.2253769 26.2008533,10.4367208 25.9872611,10.7643312 C25.7508683,11.260551 25.6414348,11.8077186 25.6687898,12.3566879 L25.6687898,15.5414013 C25.6791163,16.1508946 25.5709563,16.7565911 25.3503185,17.3248408 C25.1660395,17.8003875 24.8582124,18.2181528 24.4585987,18.5350318 C24.0790758,18.8425657 23.6476727,19.0798374 23.1847134,19.2356688 C22.6818295,19.3566577 22.1709916,19.4417973 21.656051,19.4904459 C21.6037105,19.4966714 21.5514057,19.4785506 21.5141346,19.4412794 C21.4768634,19.4040083 21.4587426,19.3517035 21.4649682,19.2993631 L21.4649682,17.8980892 C21.4649682,17.7707006 21.5286624,17.7070064 21.7197452,17.6433121 C22.1851105,17.6280219 22.6233039,17.4204566 22.9299363,17.0700637 C23.1873511,16.7442795 23.3225633,16.3386431 23.3121019,15.9235669 L23.3121019,12.2929936 C23.2614528,11.625415 23.417092,10.9583898 23.7579618,10.3821656 C24.035246,9.96331215 24.4058897,9.61447099 24.8407643,9.36305732 L24.8407643,9.29936306 C24.3740012,9.0688025 23.9779619,8.71676759 23.6942675,8.28025478 C23.3611463,7.72425952 23.205601,7.0798575 23.2484076,6.43312102 L23.2484076,3.43949045 C23.258869,3.02441418 23.1236569,2.61877784 22.866242,2.29299363 C22.5426923,1.97486898 22.1097078,1.79255975 21.656051,1.78343949 C21.5193544,1.77419309 21.4105203,1.66535895 21.4012739,1.52866242 L21.4012739,0.25477707 C21.4012739,0.127388535 21.4649682,0.0636942675 21.656051,0.0636942675 C22.1980075,0.0496796994 22.7378794,0.136059214 23.2484076,0.318471338 C23.7179238,0.425686501 24.1548112,0.644130204 24.522293,0.955414013 C24.8872079,1.26476183 25.1713875,1.65824126 25.3503185,2.10191083 C25.5651649,2.67177005 25.6731259,3.27635136 25.6687898,3.88535032 L25.6687898,6.24203822 C25.633791,6.79154614 25.7436054,7.34061789 25.9872611,7.8343949 C26.2008533,8.16200533 26.5530932,8.37334925 26.9426752,8.40764331 C27.0424558,8.40955338 27.1360558,8.45635339 27.1974522,8.53503185 C27.2611465,8.59872611 27.2611465,8.66242038 27.2611465,8.78980892 L27.2611465,9.87261146 C27.1974522,10 27.1974522,10.0636943 27.133758,10.1273885 L27.133758,10.1273885 Z" id="Shape" fill="#B70D31"></path>
                    <circle id="Oval" fill="#53535A" cx="13.6305732" cy="9.74522293" r="1.46496815"></circle>
                    <circle id="Oval" fill="#53535A" cx="7.70700637" cy="9.74522293" r="1.46496815"></circle>
                    <circle id="Oval" fill="#53535A" cx="19.5541401" cy="9.74522293" r="1.46496815"></circle>
                </g>
            </g>
        </g>
    </g>
</svg>